<svg xmlns="http://www.w3.org/2000/svg" width="10" height="20" viewBox="0 0 10 20">
  <title>bitcoin</title>
  <path d="M8.16,10A3.67,3.67,0,0,0,10,6.76c0-1-.37-3.19-3.42-3.84V0.81A0.82,0.82,0,0,0,5.79,0,0.82,0.82,0,0,0,5,.81V2.7H3.95V0.81A0.82,0.82,0,0,0,3.16,0a0.82,0.82,0,0,0-.79.81V2.7H0.79a0.81,0.81,0,0,0,0,1.62H1.05V15.68H0.79a0.81,0.81,0,0,0,0,1.62H2.37v1.89a0.82,0.82,0,0,0,.79.81,0.82,0.82,0,0,0,.79-0.81V17.3H5v1.89a0.82,0.82,0,0,0,.79.81,0.82,0.82,0,0,0,.79-0.81V17.08C9.63,16.43,10,14.27,10,13.24A3.67,3.67,0,0,0,8.16,10ZM4.53,4.32c2.58,0,3.89.81,3.89,2.43S7.11,9.19,4.53,9.19H2.63V4.32H4.53Zm0,11.35H2.63V10.81H4.53c2.58,0,3.89.81,3.89,2.43S7.11,15.68,4.53,15.68Z"/>
</svg>
