<svg xmlns="http://www.w3.org/2000/svg" xmlns:xlink="http://www.w3.org/1999/xlink" preserveAspectRatio="xMidYMid" width="72" height="46" viewBox="0 0 72 46">
  <defs>
    <style>
      .cls-1 {
        fill: #000000;
        fill-rule: evenodd;
      }
    </style>
  </defs>
  <path d="M72.000,25.418 L72.000,26.637 L62.213,26.637 L62.213,30.287 L71.951,30.287 L71.951,31.468 L62.213,31.468 L62.213,35.118 L70.432,35.118 L70.432,36.338 L62.213,36.338 L62.213,39.949 L67.134,39.949 L67.134,41.169 L62.213,41.169 L62.213,44.845 L61.076,44.845 L61.076,46.000 L51.915,46.000 L51.915,45.979 L14.404,45.979 C6.451,45.979 -0.004,39.460 -0.004,31.542 C-0.004,25.616 3.609,20.535 8.759,18.351 C8.708,17.970 8.641,17.595 8.641,17.203 C8.641,12.450 12.510,8.599 17.286,8.599 C20.154,8.599 22.673,10.000 24.246,12.137 C26.900,5.051 33.742,-0.004 41.782,-0.004 C47.709,-0.004 52.977,2.744 56.407,7.018 C55.332,7.015 54.659,7.039 54.659,7.039 L52.465,7.107 L52.465,7.304 L56.134,7.304 L56.134,7.039 L57.358,7.039 L57.358,7.304 L61.027,7.304 L61.027,8.599 L57.358,8.599 L57.358,10.924 L61.027,10.924 L61.027,8.648 L62.213,8.648 L62.213,10.924 L63.445,10.924 L63.445,12.143 L62.213,12.143 L62.213,15.755 L65.779,15.755 L65.779,16.937 L62.213,16.937 L62.213,20.586 L70.432,20.586 L70.432,21.806 L62.213,21.806 L62.213,25.418 L72.000,25.418 ZM48.388,17.959 L48.290,19.421 L46.723,19.421 L46.723,20.586 L51.240,20.586 L51.240,16.937 L50.132,16.937 L50.152,17.861 L48.388,17.959 ZM51.240,15.755 L51.240,12.143 L50.031,12.143 L50.107,15.755 L51.240,15.755 ZM50.005,10.924 L51.240,10.924 L51.240,8.599 L49.956,8.599 L50.005,10.924 ZM50.071,35.118 L51.240,35.118 L51.240,31.468 L49.893,31.468 C49.925,32.186 49.975,33.267 50.054,34.923 C50.057,34.989 50.067,35.053 50.071,35.118 ZM49.845,30.287 C49.839,30.075 49.849,30.202 49.854,30.287 L51.240,30.287 L51.240,26.637 L48.404,26.637 L48.582,30.287 L49.845,30.287 ZM51.240,36.338 L50.202,36.338 C50.404,37.692 50.780,38.969 51.240,40.125 L51.240,36.338 ZM48.290,24.296 L48.345,25.418 L51.240,25.418 L51.240,21.806 L46.723,21.806 L46.723,24.003 L48.290,24.296 ZM56.134,8.599 L52.465,8.599 L52.465,10.924 L56.134,10.924 L56.134,8.599 ZM56.134,12.143 L52.465,12.143 L52.465,15.755 L56.134,15.755 L56.134,12.143 ZM56.134,16.937 L52.465,16.937 L52.465,20.586 L56.134,20.586 L56.134,16.937 ZM56.134,21.806 L52.465,21.806 L52.465,25.418 L56.134,25.418 L56.134,21.806 ZM56.134,26.637 L52.465,26.637 L52.465,30.287 L56.134,30.287 L56.134,26.637 ZM56.134,31.468 L52.465,31.468 L52.465,35.118 L56.134,35.118 L56.134,31.468 ZM56.134,36.338 L52.465,36.338 L52.465,39.949 L56.134,39.949 L56.134,36.338 ZM56.134,41.169 L52.465,41.169 L52.465,42.686 C52.933,43.523 53.397,44.235 53.785,44.781 L56.134,44.781 L56.134,41.169 ZM61.027,12.143 L57.358,12.143 L57.358,15.755 L61.027,15.755 L61.027,12.143 ZM61.027,16.937 L57.358,16.937 L57.358,20.586 L61.027,20.586 L61.027,16.937 ZM61.027,21.806 L57.358,21.806 L57.358,25.418 L61.027,25.418 L61.027,21.806 ZM61.027,26.637 L57.358,26.637 L57.358,30.287 L61.027,30.287 L61.027,26.637 ZM61.027,31.468 L57.358,31.468 L57.358,35.118 L61.027,35.118 L61.027,31.468 ZM61.027,36.338 L57.358,36.338 L57.358,39.949 L61.027,39.949 L61.027,36.338 ZM61.027,41.169 L57.358,41.169 L57.358,44.781 L61.027,44.781 L61.027,41.169 Z" class="cls-1"/>
</svg>
