<svg xmlns="http://www.w3.org/2000/svg" width="24" height="24" viewBox="0 0 24 24" fill="none" fill-rule="evenodd" stroke="currentColor" stroke-linecap="round" stroke-linejoin="round" stroke-width="2">
  <path d="M1.14430801,4.55326218 C1.52525217,3.57480664 2.78659622,2.911321 3.58725953,3.00889111 C7.18789107,3.44766984 10.492951,4.84389299 13.2401445,6.93526585 C13.9590764,7.48257152 17.1879712,5.69919309 17.8257909,6.33701282 C18.5315745,7.0427964 16.6366519,10.1794093 17.2309906,10.9838987 C19.2389093,13.7017921 20.5744827,16.9466324 20.9921029,20.4728117 C21.0843733,21.2518966 20.3529939,22.1790671 19.5868679,22.8486188" transform="rotate(-180 11.072 12.924)"/>
  <path d="M11,12 C11.5522847,12 12,12.4477153 12,13 C12,13.5522847 11.5522847,14 11,14 C10.4477153,14 10,13.5522847 10,13 C10,12.4477153 10.4477153,12 11,12 Z M15,8 C15.5522847,8 16,8.44771525 16,9 C16,9.55228475 15.5522847,10 15,10 C14.4477153,10 14,9.55228475 14,9 C14,8.44771525 14.4477153,8 15,8 Z M19,4 C19.5522847,4 20,4.44771525 20,5 C20,5.55228475 19.5522847,6 19,6 C18.4477153,6 18,5.55228475 18,5 C18,4.44771525 18.4477153,4 19,4 Z"/>
</svg>
