<svg xmlns="http://www.w3.org/2000/svg" width="19" height="18" viewBox="0 0 19 18">
  <path d="M1.30841121,11.0316983 C0.577754036,10.9880199 -9.23705556e-14,10.4359251 -9.23705556e-14,9.76127321 C-9.23705556e-14,9.08662131 0.577754036,8.53452653 1.30841121,8.49084813 L1.30841121,8.48060345 C2.83896758,8.48060345 3.34915304,7.90948276 3.34915304,6.21767241 L3.34915304,3.90086207 C3.34915304,1.18534483 4.84411507,0 8.27303592,0 L9.31713639,0 L9.31713639,2.00431034 L8.78322138,2.00431034 C6.825533,2.00431034 6.16110543,2.59698276 6.16110543,4.31034483 L6.16110543,7.12284483 C6.16110543,8.68534483 5.41362442,9.49353448 3.81187938,9.63362069 L3.81187938,9.93534483 C5.3661653,10.0646552 6.16110543,10.9482759 6.16110543,12.5646552 L6.16110543,15.700431 C6.16110543,17.3814655 6.84926256,17.9849138 8.78322138,17.9849138 L9.31713639,17.9849138 L9.31713639,20 L8.27303592,20 C4.85597985,20 3.34915304,18.7715517 3.34915304,15.9913793 L3.34915304,13.3189655 C3.34915304,11.6271552 2.85083236,11.0668103 1.30841121,11.0668103 L1.30841121,11.0316983 Z M9.25233645,11.0344828 C8.47810549,11.0344828 7.85046729,10.4644474 7.85046729,9.76127321 C7.85046729,9.05809899 8.47810549,8.48806366 9.25233645,8.48806366 C10.0265674,8.48806366 10.6542056,9.05809899 10.6542056,9.76127321 C10.6542056,10.4644474 10.0265674,11.0344828 9.25233645,11.0344828 Z M13.9252336,11.0344828 C13.1510027,11.0344828 12.5233645,10.4644474 12.5233645,9.76127321 C12.5233645,9.05809899 13.1510027,8.48806366 13.9252336,8.48806366 C14.6994646,8.48806366 15.3271028,9.05809899 15.3271028,9.76127321 C15.3271028,10.4644474 14.6994646,11.0344828 13.9252336,11.0344828 Z M18.5981308,11.0344828 C17.8238999,11.0344828 17.1962617,10.4644474 17.1962617,9.76127321 C17.1962617,9.05809899 17.8238999,8.48806366 18.5981308,8.48806366 C19.3723618,8.48806366 20,9.05809899 20,9.76127321 C20,10.4644474 19.3723618,11.0344828 18.5981308,11.0344828 Z" transform="rotate(-45 7.747 7.452)"/>
</svg>
