<svg xmlns="http://www.w3.org/2000/svg" width="23" height="23" viewBox="0 0 23 23" fill="none" stroke="currentColor" stroke-linejoin="round">
  <path d="M310.070093,442.238038 C309.193305,442.185624 308.5,441.52311 308.5,440.713528 C308.5,439.903946 309.193305,439.241432 310.070093,439.189018 L310.070093,439.176724 C311.906761,439.176724 312.518984,438.491379 312.518984,436.461207 L312.518984,433.681034 C312.518984,430.422414 314.312938,429 318.427643,429 L319.680564,429 L319.680564,431.405172 L319.039866,431.405172 C316.69064,431.405172 315.893327,432.116379 315.893327,434.172414 L315.893327,437.547414 C315.893327,439.422414 314.996349,440.392241 313.074255,440.560345 L313.074255,440.922414 C314.939398,441.077586 315.893327,442.137931 315.893327,444.077586 L315.893327,447.840517 C315.893327,449.857759 316.719115,450.581897 319.039866,450.581897 L319.680564,450.581897 L319.680564,453 L318.427643,453 C314.327176,453 312.518984,451.525862 312.518984,448.189655 L312.518984,444.982759 C312.518984,442.952586 311.920999,442.280172 310.070093,442.280172 L310.070093,442.238038 Z M319.602804,442.241379 C318.673727,442.241379 317.920561,441.557337 317.920561,440.713528 C317.920561,439.869719 318.673727,439.185676 319.602804,439.185676 C320.531881,439.185676 321.285047,439.869719 321.285047,440.713528 C321.285047,441.557337 320.531881,442.241379 319.602804,442.241379 Z M325.21028,442.241379 C324.281203,442.241379 323.528037,441.557337 323.528037,440.713528 C323.528037,439.869719 324.281203,439.185676 325.21028,439.185676 C326.139358,439.185676 326.892523,439.869719 326.892523,440.713528 C326.892523,441.557337 326.139358,442.241379 325.21028,442.241379 Z M330.817757,442.241379 C329.88868,442.241379 329.135514,441.557337 329.135514,440.713528 C329.135514,439.869719 329.88868,439.185676 330.817757,439.185676 C331.746834,439.185676 332.5,439.869719 332.5,440.713528 C332.5,441.557337 331.746834,442.241379 330.817757,442.241379 Z" transform="rotate(-45 -353.263 596.082)"/>
</svg>
