<svg xmlns="http://www.w3.org/2000/svg" width="191" height="36" viewBox="0 0 191 36">
  <g fill-rule="evenodd">
    <path fill-rule="nonzero" d="M70.5405028,34.7761628 L70.5405028,29.5208132 C70.5405028,29.3128379 70.5084735,29.0968667 70.4444141,28.8728933 C70.3803546,28.6489199 70.2802631,28.4489467 70.1441367,28.2729676 C70.0080104,28.0969885 69.8478641,27.9530077 69.6636931,27.841021 C69.4795221,27.7290343 69.2673282,27.6730418 69.0271052,27.6730418 L66.3846649,27.6730418 L66.3846649,34.7761628 L63.670158,34.7761628 L63.670158,12.2909453 L66.3846649,12.2909453 L66.3846649,24.9613774 L69.0271052,24.9613774 C69.2673282,24.9613774 69.4795221,24.9053849 69.6636931,24.7933982 C69.8478641,24.6814114 70.0080104,24.5374307 70.1441367,24.3614516 C70.2802631,24.1854725 70.3803546,23.9894987 70.4444141,23.7735244 C70.5084735,23.55755 70.5405028,23.3375794 70.5405028,23.113606 L70.5405028,18.2182118 L73.2790318,18.2182118 L73.2790318,23.113606 C73.2790318,23.7055357 73.1749367,24.2774592 72.9667434,24.8293937 C72.7585501,25.3813282 72.4462649,25.8732624 72.0298782,26.3052111 C72.4462649,26.7371598 72.7585501,27.2330935 72.9667434,27.793027 C73.1749367,28.3529605 73.2790318,28.9288834 73.2790318,29.5208132 L73.2790318,34.7761628 L70.5405028,34.7761628 Z M80.0081262,20.9538733 C79.5276801,20.9538733 79.143329,21.1458476 78.8550613,21.529802 C78.5667937,21.9137564 78.422662,22.3297008 78.422662,22.7776476 L78.422662,34.7761628 L75.684133,34.7761628 L75.684133,22.8016446 C75.684133,22.2097149 75.7922317,21.6337919 76.0084325,21.0738584 C76.2246332,20.5139249 76.5249075,20.0259902 76.9092644,19.6100396 C77.2936213,19.194089 77.7500382,18.8581339 78.2785289,18.6021643 C78.8070196,18.3461947 79.3835463,18.2182118 80.0081262,18.2182118 L83.9477645,18.2182118 L83.9477645,20.9538733 L80.0081262,20.9538733 Z M95.0008521,27.6730418 L88.1305073,27.6730418 L88.1305073,30.19273 C88.1305073,30.6246787 88.2025731,30.9646333 88.3467069,31.2126038 C88.4908408,31.4605744 88.6790127,31.6445498 88.9112283,31.7645355 C89.1434439,31.8845213 89.4156926,31.9605111 89.7279825,31.9925073 C90.0402725,32.0245035 90.3645688,32.0405014 90.700881,32.0405014 L93.6315875,32.0405014 L93.6315875,34.7761628 L91.8299237,34.7761628 L89.3316165,34.7521658 C88.7710961,34.7521658 88.2506206,34.6201835 87.7701745,34.3562148 C87.2897284,34.0922462 86.873348,33.7482922 86.5210209,33.3243425 C86.1686938,32.9003928 85.8924414,32.4164576 85.6922555,31.8725221 C85.4920697,31.3285867 85.3919782,30.7686616 85.3919782,30.19273 L85.3919782,22.8016446 C85.3919782,22.2097149 85.500077,21.6337919 85.7162777,21.0738584 C85.9324785,20.5139249 86.2327528,20.0259902 86.6171096,19.6100396 C87.0014665,19.194089 87.4578835,18.8581339 87.9863742,18.6021643 C88.5148649,18.3461947 89.0913915,18.2182118 89.7159715,18.2182118 L90.700881,18.2182118 C91.3254609,18.2182118 91.897984,18.3461947 92.4184672,18.6021643 C92.9389505,18.8581339 93.3913638,19.194089 93.7757207,19.6100396 C94.1600775,20.0259902 94.4603518,20.5139249 94.6765526,21.0738584 C94.8927533,21.6337919 95.0008521,22.2097149 95.0008521,22.8016446 L95.0008521,27.6730418 Z M92.2863452,22.8016446 C92.2863452,22.5776712 92.2503123,22.3577006 92.1782454,22.1417263 C92.1061785,21.9257519 91.9980797,21.7297781 91.8539459,21.553799 C91.7098121,21.3778199 91.5416584,21.2338392 91.34948,21.1218525 C91.1573016,21.0098658 90.9411041,20.9538733 90.700881,20.9538733 L89.7159715,20.9538733 C89.2195105,20.9538733 88.8311557,21.1498471 88.5508955,21.5418005 C88.2706353,21.933754 88.1305073,22.3536978 88.1305073,22.8016446 L88.1305073,24.9613774 L92.2863452,24.9613774 L92.2863452,22.8016446 Z M111.194687,34.7761628 L111.194687,22.8256417 C111.194687,22.3137024 111.038545,21.8777607 110.726255,21.5178035 C110.413965,21.1578462 110.041624,20.9778703 109.609223,20.9778703 L108.624313,20.9778703 C108.191912,20.9778703 107.819572,21.1578462 107.507282,21.5178035 C107.194992,21.8777607 107.038849,22.3137024 107.038849,22.8256417 L107.038849,34.7761628 L104.30032,34.7761628 L104.30032,22.8256417 C104.30032,22.3137024 104.144178,21.8777607 103.831888,21.5178035 C103.519598,21.1578462 103.147257,20.9778703 102.714856,20.9778703 L101.729946,20.9778703 C101.28153,20.9778703 100.905186,21.1578462 100.600904,21.5178035 C100.296621,21.8777607 100.144482,22.3137024 100.144482,22.8256417 L100.12046,34.7761628 L97.4059532,34.7761628 L97.4059532,22.8256417 C97.4059532,22.2017157 97.5180556,21.6097949 97.7422638,21.0498614 C97.966472,20.4899279 98.2747536,20.0019931 98.6671179,19.5860425 C99.0594822,19.1700919 99.5199028,18.8421358 100.048394,18.6021643 C100.576884,18.3621928 101.137396,18.2422088 101.729946,18.2422088 L102.714856,18.2422088 C103.275376,18.2422088 103.811867,18.3541938 104.324342,18.5781673 C104.836818,18.8021407 105.285228,19.1061 105.669585,19.4900544 C106.053942,19.1061 106.498348,18.8021407 107.002816,18.5781673 C107.507284,18.3541938 108.047778,18.2422088 108.624313,18.2422088 L109.609223,18.2422088 C110.201773,18.2422088 110.762285,18.3621928 111.290776,18.6021643 C111.819267,18.8421358 112.279687,19.1700919 112.672052,19.5860425 C113.064416,20.0019931 113.372697,20.4899279 113.596906,21.0498614 C113.821114,21.6097949 113.933216,22.2017157 113.933216,22.8256417 L113.933216,34.7761628 L111.194687,34.7761628 Z M125.460982,30.19273 C125.460982,30.8006578 125.352883,31.3805803 125.136683,31.9325147 C124.920482,32.4844492 124.620208,32.9683845 124.235851,33.3843351 C123.851494,33.8002857 123.399081,34.1362407 122.878597,34.3922104 C122.358114,34.64818 121.785591,34.7761628 121.161011,34.7761628 L120.176102,34.7761628 C119.407388,34.7761628 118.750788,34.6281826 118.206282,34.3322178 C117.661777,34.0362529 117.217371,33.6403059 116.873051,33.1443648 C116.528731,32.6484237 116.272497,32.0884985 116.104341,31.4645726 C115.936185,30.8406467 115.852108,30.1927334 115.852108,29.5208132 C115.852108,28.9288834 115.960207,28.3569599 116.176408,27.8050255 C116.392609,27.253091 116.692883,26.7651563 117.07724,26.3412066 C117.461597,25.917257 117.918014,25.5813019 118.446504,25.3333313 C118.974995,25.0853608 119.551522,24.9613774 120.176102,24.9613774 L122.746475,24.9613774 L122.746475,22.8016446 C122.746475,22.5776712 122.710442,22.3577006 122.638375,22.1417263 C122.566309,21.9257519 122.45821,21.7297781 122.314076,21.553799 C122.169942,21.3778199 122.001789,21.2338392 121.80961,21.1218525 C121.617432,21.0098658 121.401234,20.9538733 121.161011,20.9538733 L117.197351,20.9538733 L117.197351,18.2182118 L121.161011,18.2182118 C121.785591,18.2182118 122.358114,18.3461947 122.878597,18.6021643 C123.399081,18.8581339 123.851494,19.194089 124.235851,19.6100396 C124.620208,20.0259902 124.920482,20.5139249 125.136683,21.0738584 C125.352883,21.6337919 125.460982,22.2097149 125.460982,22.8016446 L125.460982,30.19273 Z M122.746475,27.6730418 L120.176102,27.6730418 C119.935879,27.6730418 119.719681,27.7290343 119.527503,27.841021 C119.335324,27.9530077 119.167171,28.0969885 119.023037,28.2729676 C118.878903,28.4489467 118.770804,28.6449205 118.698737,28.8608948 C118.62667,29.0768692 118.590637,29.2968398 118.590637,29.5208132 L118.590637,30.19273 C118.590637,30.4167034 118.62667,30.636674 118.698737,30.8526484 C118.770804,31.0686227 118.878903,31.2645965 119.023037,31.4405756 C119.167171,31.6165547 119.335324,31.7605354 119.527503,31.8725221 C119.719681,31.9845089 119.935879,32.0405014 120.176102,32.0405014 L121.161011,32.0405014 C121.401234,32.0405014 121.617432,31.9845089 121.80961,31.8725221 C122.001789,31.7605354 122.169942,31.6165547 122.314076,31.4405756 C122.45821,31.2645965 122.566309,31.0686227 122.638375,30.8526484 C122.710442,30.636674 122.746475,30.4167034 122.746475,30.19273 L122.746475,27.6730418 Z M132.214099,34.7761628 C131.621549,34.7761628 131.061036,34.6561789 130.532546,34.4162074 C130.004055,34.1762359 129.543634,33.8482797 129.15127,33.4323291 C128.758906,33.0163785 128.450624,32.5284438 128.226416,31.9685103 C128.002208,31.4085768 127.890105,30.8166559 127.890105,30.19273 L127.890105,12.2909453 L130.628635,12.2909453 L130.628635,30.19273 C130.628635,30.7046692 130.780774,31.1406109 131.085056,31.5005682 C131.389339,31.8605254 131.765682,32.0405014 132.214099,32.0405014 L132.910742,32.0405014 L132.910742,34.7761628 L132.214099,34.7761628 Z M138.577095,34.7761628 C137.984545,34.7761628 137.43204,34.6561789 136.919564,34.4162074 C136.407088,34.1762359 135.958679,33.8562787 135.574322,33.4563262 C135.189965,33.0563737 134.881683,32.5924357 134.649468,32.0644984 C134.417252,31.5365611 134.293139,30.9846349 134.277124,30.4087033 L134.253102,30.4087033 L134.253102,18.2182118 L136.991631,18.2182118 C137.002307,19.530056 137.007646,20.834777 137.007646,22.132392 L137.003642,24.0734872 C136.995634,26.0092574 136.991631,27.9529974 136.991631,29.9047656 C136.991631,30.6726745 137.155781,31.2246006 137.484086,31.5605608 C137.81239,31.8965209 138.360891,32.0564995 139.129605,32.0405014 L139.129605,34.7761628 L138.577095,34.7761628 Z M134.253102,16.4184345 L134.253102,14.3786869 L136.991631,14.3786869 L136.991631,16.4184345 L134.253102,16.4184345 Z M144.964113,34.7521658 C144.371563,34.7521658 143.811051,34.6321819 143.28256,34.3922104 C142.75407,34.1522388 142.293649,33.8282822 141.901285,33.4203306 C141.508921,33.0123791 141.200639,32.5284438 140.976431,31.9685103 C140.752223,31.4085768 140.64012,30.8166559 140.64012,30.19273 L140.64012,22.7776476 C140.64012,22.1537217 140.752223,21.5618008 140.976431,21.0018673 C141.200639,20.4419338 141.508921,19.9579985 141.901285,19.550047 C142.293649,19.1420954 142.75407,18.8181388 143.28256,18.5781673 C143.811051,18.3381957 144.371563,18.2182118 144.964113,18.2182118 L148.903752,18.2182118 L148.903752,20.9298762 L144.964113,20.9298762 C144.515697,20.9298762 144.139353,21.1098522 143.835071,21.4698094 C143.530788,21.8297667 143.378649,22.2657084 143.378649,22.7776476 L143.378649,30.19273 C143.378649,30.7046692 143.530788,31.1366115 143.835071,31.4885697 C144.139353,31.8405279 144.515697,32.0165043 144.964113,32.0165043 L148.903752,32.0165043 L148.903752,34.7521658 L144.964113,34.7521658 Z M155.272513,34.7761628 C154.679963,34.7761628 154.127458,34.6561789 153.614983,34.4162074 C153.102507,34.1762359 152.654097,33.8562787 152.26974,33.4563262 C151.885383,33.0563737 151.577102,32.5924357 151.344886,32.0644984 C151.11267,31.5365611 150.988557,30.9846349 150.972542,30.4087033 L150.94852,30.4087033 L150.94852,18.2182118 L153.687049,18.2182118 C153.697726,19.530056 153.703064,20.834777 153.703064,22.132392 L153.69906,24.0734872 C153.691053,26.0092574 153.687049,27.9529974 153.687049,29.9047656 C153.687049,30.6726745 153.851199,31.2246006 154.179504,31.5605608 C154.507809,31.8965209 155.05631,32.0564995 155.825024,32.0405014 L155.825024,34.7761628 L155.272513,34.7761628 Z M150.94852,16.4184345 L150.94852,14.3786869 L153.687049,14.3786869 L153.687049,16.4184345 L150.94852,16.4184345 Z M166.944412,30.19273 C166.944412,30.8166559 166.83231,31.4085768 166.608102,31.9685103 C166.383894,32.5284438 166.075612,33.0123791 165.683248,33.4203306 C165.290883,33.8282822 164.834466,34.1522388 164.313983,34.3922104 C163.7935,34.6321819 163.236991,34.7521658 162.644441,34.7521658 L161.659532,34.7521658 C161.066982,34.7521658 160.50647,34.6321819 159.977979,34.3922104 C159.449488,34.1522388 158.989067,33.8282822 158.596703,33.4203306 C158.204339,33.0123791 157.896057,32.5284438 157.671849,31.9685103 C157.447641,31.4085768 157.335538,30.8166559 157.335538,30.19273 L157.335538,22.7776476 C157.335538,22.1537217 157.447641,21.5618008 157.671849,21.0018673 C157.896057,20.4419338 158.204339,19.9579985 158.596703,19.550047 C158.989067,19.1420954 159.449488,18.8181388 159.977979,18.5781673 C160.50647,18.3381957 161.066982,18.2182118 161.659532,18.2182118 L162.644441,18.2182118 C163.236991,18.2182118 163.7935,18.3381957 164.313983,18.5781673 C164.834466,18.8181388 165.290883,19.1420954 165.683248,19.550047 C166.075612,19.9579985 166.383894,20.4419338 166.608102,21.0018673 C166.83231,21.5618008 166.944412,22.1537217 166.944412,22.7776476 L166.944412,30.19273 Z M164.229905,22.7776476 C164.229905,22.2657084 164.073763,21.8297667 163.761473,21.4698094 C163.449183,21.1098522 163.076843,20.9298762 162.644441,20.9298762 L161.659532,20.9298762 C161.211115,20.9298762 160.834772,21.1098522 160.530489,21.4698094 C160.226207,21.8297667 160.074068,22.2657084 160.074068,22.7776476 L160.074068,30.19273 C160.074068,30.7046692 160.226207,31.1366115 160.530489,31.4885697 C160.834772,31.8405279 161.211115,32.0165043 161.659532,32.0165043 L162.644441,32.0165043 C163.076843,32.0165043 163.449183,31.8405279 163.761473,31.4885697 C164.073763,31.1366115 164.229905,30.7046692 164.229905,30.19273 L164.229905,22.7776476 Z M178.958387,30.216727 C178.958387,30.840653 178.846285,31.4325738 178.622077,31.9925073 C178.397869,32.5524408 178.089587,33.0363761 177.697223,33.4443276 C177.304858,33.8522792 176.848441,34.1762359 176.327958,34.4162074 C175.807475,34.6561789 175.250966,34.7761628 174.658416,34.7761628 L173.673507,34.7761628 C173.080957,34.7761628 172.520444,34.6561789 171.991954,34.4162074 C171.463463,34.1762359 171.003042,33.8522792 170.610678,33.4443276 C170.218314,33.0363761 169.910032,32.5524408 169.685824,31.9925073 C169.461616,31.4325738 169.349513,30.840653 169.349513,30.216727 L169.349513,18.2182118 L172.088043,18.2182118 L172.088043,30.216727 C172.088043,30.7286663 172.240181,31.1646079 172.544464,31.5245652 C172.848747,31.8845225 173.22509,32.0644984 173.673507,32.0644984 L174.658416,32.0644984 C175.090818,32.0644984 175.463158,31.8845225 175.775448,31.5245652 C176.087738,31.1646079 176.24388,30.7286663 176.24388,30.216727 L176.24388,18.2182118 L178.958387,18.2182118 L178.958387,30.216727 Z M190.756163,29.7607835 C190.756163,30.4167056 190.664079,31.0446216 190.479908,31.6445504 C190.295737,32.2444791 190.023488,32.776408 189.663153,33.2403529 C189.302819,33.7042978 188.854409,34.076248 188.317911,34.3562148 C187.781413,34.6361816 187.152839,34.7761628 186.432169,34.7761628 L185.44726,34.7761628 C184.82268,34.7761628 184.246153,34.64818 183.717663,34.3922104 C183.189172,34.1362407 182.732755,33.7962862 182.348398,33.3723366 C181.964041,32.9483869 181.663767,32.4604522 181.447566,31.9085177 C181.231365,31.3565832 181.123267,30.7766608 181.123267,30.168733 L183.861796,30.168733 C183.861796,30.3927064 183.897829,30.6206759 183.969895,30.8526484 C184.041962,31.0846208 184.146057,31.2885935 184.282184,31.4645726 C184.41831,31.6405517 184.58246,31.7845325 184.774639,31.8965192 C184.966817,32.0085059 185.191022,32.0644984 185.44726,32.0644984 L186.432169,32.0644984 C186.752467,32.0644984 187.016708,31.992508 187.224901,31.8485251 C187.433095,31.7045422 187.597245,31.5165674 187.717356,31.2845949 C187.837468,31.0526224 187.917541,30.8006561 187.957578,30.5286884 C187.997615,30.2567207 188.017634,29.992756 188.017634,29.7367864 C188.017634,29.2568434 187.953575,28.8768942 187.825456,28.5969275 C187.697337,28.3169607 187.517173,28.1089885 187.284957,27.9730047 C187.052741,27.8370208 186.780493,27.7530321 186.468203,27.7210359 C186.260009,27.6997051 186.039362,27.6854846 185.806259,27.6783744 L185.44726,27.6730418 C184.79065,27.6730418 184.198109,27.5450589 183.669618,27.2890893 C183.141127,27.0331197 182.688714,26.6851663 182.312365,26.2452185 C181.936015,25.8052707 181.643748,25.3013381 181.435555,24.7334056 C181.227362,24.165473 181.123267,23.5695527 181.123267,22.9456268 C181.123267,22.3217009 181.227362,21.7257806 181.435555,21.157848 C181.643748,20.5899155 181.936015,20.0899823 182.312365,19.6580336 C182.688714,19.2260849 183.141127,18.8781315 183.669618,18.6141628 C184.198109,18.3501941 184.79065,18.2182118 185.44726,18.2182118 L186.432169,18.2182118 C187.056749,18.2182118 187.633276,18.3461947 188.161767,18.6021643 C188.690257,18.8581339 189.146674,19.1980884 189.531031,19.6220381 C189.915388,20.0459877 190.215662,20.5379219 190.431863,21.0978555 C190.648064,21.657789 190.756163,22.2417109 190.756163,22.8496387 L188.017634,22.8496387 C188.017634,22.6256653 187.981601,22.4016952 187.909534,22.1777218 C187.837467,21.9537484 187.733372,21.7497757 187.597245,21.5657975 C187.461119,21.3818194 187.296969,21.2338392 187.104791,21.1218525 C186.912612,21.0098658 186.688407,20.9538733 186.432169,20.9538733 L185.44726,20.9538733 C185.158992,20.9538733 184.914769,21.0178647 184.714583,21.1458495 C184.514397,21.2738343 184.350247,21.4338129 184.222128,21.6257901 C184.094009,21.8177673 184.001925,22.0377379 183.945873,22.2857085 C183.889821,22.533679 183.861796,22.7776464 183.861796,23.0176179 C183.861796,23.2575894 183.897829,23.4935578 183.969895,23.7255303 C184.041962,23.9575027 184.142054,24.1654749 184.270173,24.3494531 C184.398292,24.5334312 184.562442,24.6814114 184.762628,24.7933982 C184.962813,24.9053849 185.191022,24.9613774 185.44726,24.9613774 L186.432169,24.9613774 C187.104794,24.9613774 187.705343,25.0933597 188.233833,25.3573284 C188.762324,25.621297 189.214737,25.97325 189.591087,26.4131977 C189.967436,26.8531455 190.255699,27.365077 190.455885,27.9490077 C190.656071,28.5329383 190.756163,29.1368576 190.756163,29.7607835 Z"/>
    <path d="M39.7812157,35.36832 L11.0396799,35.36832 C4.94581887,35.36832 -1.36567208e-13,30.354 -1.36567208e-13,24.26412 C-1.36567208e-13,19.70592 2.76781824,15.79824 6.71395031,14.11824 C6.67526981,13.82532 6.62337547,13.53648 6.62337547,13.23504 C6.62337547,9.5796 9.58844025,6.61752 13.2478321,6.61752 C15.4450528,6.61752 17.3753541,7.69464 18.5809365,9.33828 C20.6141855,3.88824 25.8562346,0 32.0170057,0 C36.5582409,0 40.5947075,2.11368 43.2229396,5.40156 C42.6738046,5.39956 43.8537602,5.4048 46.7628063,5.41728 L46.7628063,6.61716 L44.3605308,6.61716 L44.3605308,9.0168 L46.7628063,9.0168 L46.7628063,6.6546 L47.963944,6.6546 L47.963944,9.0168 L48.0014233,9.0168 L48.0014233,10.21668 L47.963944,10.21668 L47.963944,12.61632 L50.4036987,12.61632 L50.4036987,13.8162 L47.963944,13.8162 L47.963944,16.21596 L53.9692723,16.21596 L53.9692723,17.41572 L47.963944,17.41572 L47.963944,19.81548 L55.1704101,19.81548 L55.1704101,21.01536 L47.963944,21.01536 L47.963944,23.41512 L55.1329308,23.41512 L55.1329308,24.61488 L47.963944,24.61488 L47.963944,27.01464 L53.9692723,27.01464 L53.9692723,28.2144 L47.963944,28.2144 L47.963944,30.61416 L51.5296377,30.61416 L51.5296377,31.81404 L47.963944,31.81404 L47.963944,34.17624 L46.7628063,34.17624 L46.7628063,31.81404 L44.3605308,31.81404 L44.3605308,34.21368 L46.8002855,34.21368 L46.8002855,35.41356 L39.7812157,35.41356 L39.7812157,35.36832 Z M41.0517862,34.21368 L43.1593931,34.21368 L43.1593931,31.81404 L40.7572377,31.81404 L40.7572377,33.76788 C40.858744,33.92664 40.9572472,34.07532 41.0517862,34.21368 Z M38.5045189,28.2144 C38.7142585,29.43588 39.1075503,30.57084 39.5559799,31.56216 L39.5559799,28.2144 L38.5045189,28.2144 Z M40.7572377,30.61416 L43.1593931,30.61416 L43.1593931,28.2144 L40.7572377,28.2144 L40.7572377,30.61416 Z M44.3605308,30.61416 L46.7628063,30.61416 L46.7628063,28.2144 L44.3605308,28.2144 L44.3605308,30.61416 Z M38.2499723,24.61488 C38.2739975,25.14948 38.3079931,25.87752 38.3549623,26.86452 L38.3636113,27.01464 L39.5559799,27.01464 L39.5559799,24.61488 L38.2499723,24.61488 Z M40.7572377,27.01464 L43.1593931,27.01464 L43.1593931,24.615 L40.7572377,24.615 L40.7572377,27.01464 Z M44.3605308,27.01464 L46.7628063,27.01464 L46.7628063,24.615 L44.3605308,24.615 L44.3605308,27.01464 Z M38.1957956,23.34012 L38.1986786,23.41512 L39.5559799,23.41512 L39.5559799,21.01536 L37.1163453,21.01536 L37.2289031,23.34012 L38.1957956,23.34012 Z M40.7572377,23.41512 L43.1593931,23.41512 L43.1593931,21.01536 L40.7572377,21.01536 L40.7572377,23.41512 Z M44.3605308,23.41512 L46.7628063,23.41512 L46.7628063,21.01536 L44.3605308,21.01536 L44.3605308,23.41512 Z M38.204805,23.34012 L38.1957956,23.34012 C38.1859453,23.04108 38.2043245,23.3316 38.204805,23.34012 Z M35.8026497,17.41572 L35.8026497,18.4656 L37.0037874,18.6906 L37.0582044,19.81548 L39.5559799,19.81548 L39.5559799,17.41572 L35.8026497,17.41572 Z M40.7572377,19.81548 L43.1593931,19.81548 L43.1593931,17.41584 L40.7572377,17.41584 L40.7572377,19.81548 Z M44.3605308,19.81548 L46.7628063,19.81548 L46.7628063,17.41584 L44.3605308,17.41584 L44.3605308,19.81548 Z M35.8026497,14.94108 L35.8026497,16.21596 L39.5559799,16.21596 L39.5559799,13.8162 L37.0787459,13.8162 L37.0037874,14.94108 L35.8026497,14.94108 Z M40.7572377,16.21596 L43.1593931,16.21596 L43.1593931,13.8162 L40.7572377,13.8162 L40.7572377,16.21596 Z M44.3605308,16.21596 L46.7628063,16.21596 L46.7628063,13.8162 L44.3605308,13.8162 L44.3605308,16.21596 Z M39.5559799,12.61632 L39.5559799,10.21668 L38.3558031,10.21668 L38.406256,12.61632 L39.5559799,12.61632 Z M40.7572377,12.61632 L43.1593931,12.61632 L43.1593931,10.21668 L40.7572377,10.21668 L40.7572377,12.61632 Z M44.3605308,12.61632 L46.7628063,12.61632 L46.7628063,10.21668 L44.3605308,10.21668 L44.3605308,12.61632 Z M39.5559799,9.0168 L39.5559799,6.61716 L38.2798836,6.61716 L38.3304566,9.0168 L39.5559799,9.0168 Z M40.7572377,9.0168 L43.1593931,9.0168 L43.1593931,6.61716 L40.7572377,6.61716 L40.7572377,9.0168 Z"/>
  </g>
</svg>
