<svg xmlns="http://www.w3.org/2000/svg" width="160" height="30" viewBox="0 0 160 30">
  <path d="M26.6529,3.55271368e-15 C30.4333,3.55271368e-15 33.7935,1.7614 35.9814,4.5013 L35.6606949,4.50139491 C35.1644333,4.50353611 34.8661,4.5143 34.8661,4.5143 L38.9282,4.5144 L38.9282,5.5143 L36.9284,5.5143 L36.9284,7.514 L38.9282,7.514 L38.9282,5.5455 L39.9281,5.5455 L39.9281,7.514 L39.9593,7.514 L39.9593,8.5139 L39.9281,8.5139 L39.9281,10.5136 L41.9591,10.5136 L41.9591,11.5135 L39.9281,11.5135 L39.9281,13.5133 L44.9273,13.5133 L44.9273,14.5131 L39.9281,14.5131 L39.9281,16.5129 L45.9272,16.5129 L45.9272,17.5128 L39.9281,17.5128 L39.9281,19.5126 L45.896,19.5126 L45.896,20.5124 L39.9281,20.5124 L39.9281,22.5122 L44.9273,22.5122 L44.9273,23.512 L39.9281,23.512 L39.9281,25.5118 L42.8964,25.5118 L42.8964,26.5117 L39.9281,26.5117 L39.9281,28.4802 L38.9282,28.4802 L38.9282,26.5117 L36.9284,26.5117 L36.9284,28.5114 L38.9594,28.5114 L38.9594,29.5113 L33.1163,29.5113 L33.1163,29.4736 L9.1901,29.4736 C4.1172,29.4736 -1.42108547e-14,25.295 -1.42108547e-14,20.2201 C-1.42108547e-14,16.4216 2.3041,13.1652 5.5891,11.7652 C5.5569,11.5211 5.5137,11.2804 5.5137,11.0292 C5.5137,7.983 7.982,5.5146 11.0283,5.5146 C12.8574,5.5146 14.4643,6.4122 15.4679,7.7819 C17.1605,3.2402 21.5243,3.55271368e-15 26.6529,3.55271368e-15 Z M55.2626268,10.2424544 L55.2626268,20.8011478 L57.4623546,20.8011478 C57.6623308,20.8011478 57.8389739,20.7544874 57.992289,20.6611651 C58.1456041,20.5678429 58.2789196,20.4478589 58.3922395,20.3012097 C58.5055594,20.1545604 58.5888816,19.9912489 58.6422086,19.8112703 C58.6955356,19.6312917 58.7221987,19.4479829 58.7221987,19.2613383 L58.7221987,15.1818432 L61.0019166,15.1818432 L61.0019166,19.2613383 C61.0019166,19.7546131 60.9152615,20.231216 60.7419487,20.6911614 C60.568636,21.1511068 60.3086707,21.561052 59.9620452,21.9210092 C60.3086707,22.2809665 60.568636,22.6942445 60.7419487,23.1608558 C60.9152615,23.6274671 61.0019166,24.1074029 61.0019166,24.6006776 L61.0019166,28.9801357 L58.7221987,28.9801357 L58.7221987,24.6006776 C58.7221987,24.4273649 58.6955356,24.247389 58.6422086,24.0607444 C58.5888816,23.8740999 58.5055594,23.7074556 58.3922395,23.5608063 C58.2789196,23.4141571 58.1456041,23.2941731 57.992289,23.2008509 C57.8389739,23.1075286 57.6623308,23.0608682 57.4623546,23.0608682 L55.2626268,23.0608682 L55.2626268,28.9801357 L53.0029064,28.9801357 L53.0029064,10.2424544 L55.2626268,10.2424544 Z M69.8832175,15.1818432 L69.8832175,17.4615611 L66.6036234,17.4615611 C66.2036709,17.4615611 65.8837137,17.6215397 65.6437422,17.9415017 C65.4037707,18.2614637 65.2837867,18.608084 65.2837867,18.981373 L65.2837867,28.9801357 L63.0040688,28.9801357 L63.0040688,19.0013705 C63.0040688,18.5080958 63.0940568,18.0281599 63.2740354,17.5615487 C63.454014,17.0949374 63.7039806,16.6883251 64.0239426,16.3416996 C64.3439046,15.9950741 64.7238538,15.7151116 65.1638016,15.5018036 C65.6037493,15.2884956 66.0836851,15.1818432 66.6036234,15.1818432 L69.8832175,15.1818432 Z M75.5049219,15.1818432 C76.0248602,15.1818432 76.5014631,15.2884956 76.934745,15.5018036 C77.3680268,15.7151116 77.7446431,15.9950741 78.0646052,16.3416996 C78.3845672,16.6883251 78.6345337,17.0949374 78.8145124,17.5615487 C78.994491,18.0281599 79.0844789,18.5080958 79.0844789,19.0013705 L79.0844789,23.0608682 L73.3651867,23.0608682 L73.3651867,25.1606083 C73.3651867,25.5205656 73.4251787,25.803861 73.5451644,26.0105032 C73.6651502,26.2171453 73.8217959,26.3704581 74.0151063,26.4704463 C74.2084166,26.5704344 74.435053,26.6337593 74.6950221,26.6604228 C74.9549912,26.6870863 75.2249551,26.7004178 75.5049219,26.7004178 L77.94462,26.7004178 L77.94462,28.9801357 L76.4448056,28.9801357 L74.3650629,28.9601382 C73.8984517,28.9601382 73.4651763,28.8501529 73.0652238,28.630179 C72.6652713,28.4102051 72.318651,28.1235768 72.0253525,27.7702854 C71.732054,27.416994 71.5020847,27.0137146 71.3354378,26.5604351 C71.168791,26.1071556 71.0854688,25.6405514 71.0854688,25.1606083 L71.0854688,19.0013705 C71.0854688,18.5080958 71.1754567,18.0281599 71.3554354,17.5615487 C71.535414,17.0949374 71.7853806,16.6883251 72.1053426,16.3416996 C72.4253046,15.9950741 72.8052538,15.7151116 73.2452015,15.5018036 C73.6851493,15.2884956 74.1650851,15.1818432 74.6850234,15.1818432 L75.5049219,15.1818432 Z M85.5060843,15.2018407 C85.9726956,15.2018407 86.4193025,15.2951615 86.8459185,15.481806 C87.2725345,15.6684505 87.6458179,15.92175 87.9657799,16.241712 C88.2857419,15.92175 88.6556925,15.6684505 89.0756426,15.481806 C89.4955927,15.2951615 89.9455326,15.2018407 90.4254756,15.2018407 L91.2453741,15.2018407 C91.7386489,15.2018407 92.2052531,15.3018273 92.6452009,15.5018036 C93.0851486,15.7017798 93.4684307,15.9750766 93.7950586,16.3217021 C94.1216865,16.6683276 94.3783188,17.0749399 94.5649633,17.5415512 C94.7516078,18.0081624 94.8449287,18.5014298 94.8449287,19.021368 L94.8449287,28.9801357 L92.5652108,28.9801357 L92.5652108,19.021368 C92.5652108,18.594752 92.4352282,18.2314673 92.175259,17.9315029 C91.9152899,17.6315385 91.6053314,17.4815586 91.2453741,17.4815586 L90.4254756,17.4815586 C90.0655183,17.4815586 89.7555598,17.6315385 89.4955906,17.9315029 C89.2356215,18.2314673 89.1056389,18.594752 89.1056389,19.021368 L89.1056389,28.9801357 L86.825921,28.9801357 L86.825921,19.021368 C86.825921,18.594752 86.6959384,18.2314673 86.4359692,17.9315029 C86.1760001,17.6315385 85.8660416,17.4815586 85.5060843,17.4815586 L84.6861858,17.4815586 C84.3128968,17.4815586 83.9996053,17.6315385 83.7463021,17.9315029 C83.4929988,18.2314673 83.3663491,18.594752 83.3663491,19.021368 L83.3463516,28.9801357 L81.0866312,28.9801357 L81.0866312,19.021368 C81.0866312,18.5014298 81.179952,18.0081624 81.3665966,17.5415512 C81.5532411,17.0749399 81.8098734,16.6683276 82.1365013,16.3217021 C82.4631292,15.9750766 82.8464112,15.7017798 83.286359,15.5018036 C83.7263068,15.3018273 84.192911,15.2018407 84.6861858,15.2018407 L85.5060843,15.2018407 Z M100.861784,15.1818432 C101.381722,15.1818432 101.858325,15.2884956 102.291607,15.5018036 C102.724889,15.7151116 103.101505,15.9950741 103.421467,16.3416996 C103.741429,16.6883251 103.991396,17.0949374 104.171375,17.5615487 C104.351353,18.0281599 104.441341,18.5080958 104.441341,19.0013705 L104.441341,25.1606083 C104.441341,25.6672149 104.351353,26.1504836 104.171375,26.6104289 C103.991396,27.0703743 103.741429,27.4736537 103.421467,27.8202792 C103.101505,28.1669047 102.724889,28.4468673 102.291607,28.6601753 C101.858325,28.8734833 101.381722,28.9801357 100.861784,28.9801357 L100.041886,28.9801357 C99.4019616,28.9801357 98.855368,28.8568189 98.4020885,28.6101815 C97.948809,28.3635441 97.5788585,28.0335882 97.2922258,27.620304 C97.0055932,27.2070197 96.7922884,26.7404155 96.652305,26.2204772 C96.5123216,25.7005389 96.442331,25.1606111 96.442331,24.6006776 C96.442331,24.1074029 96.532319,23.6308 96.7122976,23.1708546 C96.8922762,22.7109092 97.1422428,22.3042969 97.4622048,21.9510055 C97.7821668,21.5977141 98.162116,21.3177516 98.6020638,21.1111094 C99.0420115,20.9044673 99.5219473,20.8011478 100.041886,20.8011478 L102.181621,20.8011478 L102.181621,19.0013705 C102.181621,18.814726 102.151625,18.6314172 102.091632,18.4514386 C102.031639,18.2714599 101.941651,18.1081484 101.821665,17.9614992 C101.70168,17.8148499 101.561698,17.694866 101.401717,17.6015437 C101.241736,17.5082215 101.06176,17.4615611 100.861784,17.4615611 L97.5621924,17.4615611 L97.5621924,15.1818432 L100.861784,15.1818432 Z M108.743209,10.2424544 L108.743209,25.1606083 C108.743209,25.5872244 108.869859,25.9505091 109.123162,26.2504735 C109.376465,26.5504379 109.689757,26.7004178 110.063046,26.7004178 L110.642974,26.7004178 L110.642974,28.9801357 L110.063046,28.9801357 C109.569771,28.9801357 109.103167,28.8801491 108.663219,28.6801728 C108.223271,28.4801966 107.839989,28.2068998 107.513361,27.8602743 C107.186733,27.5136488 106.930101,27.1070365 106.743456,26.6404252 C106.556812,26.173814 106.463491,25.6805466 106.463491,25.1606083 L106.463491,10.2424544 L108.743209,10.2424544 Z M114.040153,15.1818432 C114.049041,16.2750467 114.053485,17.3623141 114.053485,18.44366 L114.050152,20.0612394 C114.043486,21.6743811 114.040153,23.2941645 114.040153,24.920638 C114.040153,25.5605621 114.176802,26.0205005 114.450103,26.3004673 C114.723404,26.580434 115.180009,26.7137496 115.819933,26.7004178 L115.819933,28.9801357 L115.35999,28.9801357 C114.866715,28.9801357 114.406777,28.8801491 113.980161,28.6801728 C113.553545,28.4801966 113.180261,28.2135656 112.860299,27.8802718 C112.540337,27.546978 112.283705,27.1603631 112.090395,26.7204153 C111.897084,26.2804676 111.793765,25.8205291 111.780433,25.3405861 L111.760435,25.3405861 L111.760435,15.1818432 L114.040153,15.1818432 Z M127.938434,15.1818432 C127.947321,16.2750467 127.951765,17.3623141 127.951765,18.44366 L127.948432,20.0612394 C127.941766,21.6743811 127.938434,23.2941645 127.938434,24.920638 C127.938434,25.5605621 128.075082,26.0205005 128.348383,26.3004673 C128.621684,26.580434 129.078289,26.7137496 129.718213,26.7004178 L129.718213,28.9801357 L129.25827,28.9801357 C128.764995,28.9801357 128.305057,28.8801491 127.878441,28.6801728 C127.451825,28.4801966 127.078542,28.2135656 126.75858,27.8802718 C126.438618,27.546978 126.181985,27.1603631 125.988675,26.7204153 C125.795364,26.2804676 125.692045,25.8205291 125.678713,25.3405861 L125.658716,25.3405861 L125.658716,15.1818432 L127.938434,15.1818432 Z M143.256538,15.1818432 L143.256538,25.1806059 C143.256538,25.6072219 143.383188,25.9705066 143.636491,26.270471 C143.889794,26.5704354 144.203086,26.7204153 144.576375,26.7204153 L145.396273,26.7204153 C145.75623,26.7204153 146.066189,26.5704354 146.326158,26.270471 C146.586127,25.9705066 146.71611,25.6072219 146.71611,25.1806059 L146.71611,15.1818432 L148.97583,15.1818432 L148.97583,25.1806059 C148.97583,25.7005441 148.882509,26.1938115 148.695865,26.6604228 C148.50922,27.127034 148.252588,27.5303134 147.92596,27.870273 C147.599332,28.2102327 147.219383,28.4801966 146.786101,28.6801728 C146.352819,28.8801491 145.889548,28.9801357 145.396273,28.9801357 L144.576375,28.9801357 C144.0831,28.9801357 143.616496,28.8801491 143.176548,28.6801728 C142.7366,28.4801966 142.353318,28.2102327 142.02669,27.870273 C141.700062,27.5303134 141.44343,27.127034 141.256785,26.6604228 C141.070141,26.1938115 140.97682,25.7005441 140.97682,25.1806059 L140.97682,15.1818432 L143.256538,15.1818432 Z M155.19746,15.1818432 C155.717399,15.1818432 156.197334,15.2884956 156.637282,15.5018036 C157.07723,15.7151116 157.457179,15.998407 157.777141,16.3516984 C158.097103,16.7049898 158.34707,17.114935 158.527048,17.5815462 C158.707027,18.0481575 158.797015,18.5347591 158.797015,19.0413656 L156.517297,19.0413656 C156.517297,18.8547211 156.487301,18.6680794 156.427308,18.4814349 C156.367315,18.2947904 156.28066,18.1248131 156.16734,17.971498 C156.05402,17.8181828 155.917372,17.694866 155.757391,17.6015437 C155.59741,17.5082215 155.410768,17.4615611 155.19746,17.4615611 L154.377562,17.4615611 C154.13759,17.4615611 153.934284,17.5148873 153.767637,17.6215413 C153.60099,17.7281953 153.464342,17.8615108 153.357688,18.0214918 C153.251034,18.1814728 153.174378,18.3647816 153.127717,18.5714237 C153.081055,18.7780658 153.057725,18.981372 153.057725,19.1813482 C153.057725,19.3813245 153.087721,19.5779649 153.147714,19.7712752 C153.207707,19.9645856 153.291029,20.1378958 153.397683,20.2912109 C153.504337,20.444526 153.640985,20.5678429 153.807632,20.6611651 C153.974279,20.7544874 154.164254,20.8011478 154.377562,20.8011478 L155.19746,20.8011478 C155.757394,20.8011478 156.257327,20.9111331 156.697275,21.131107 C157.137223,21.3510809 157.513839,21.644375 157.827135,22.0109981 C158.140431,22.3776212 158.380399,22.8042308 158.547046,23.2908397 C158.713693,23.7774486 158.797015,24.2807146 158.797015,24.8006529 C158.797015,25.3472546 158.720359,25.870518 158.567043,26.3704586 C158.413728,26.8703993 158.187092,27.3136733 157.887128,27.7002941 C157.587163,28.0869148 157.21388,28.3968734 156.767266,28.630179 C156.320652,28.8634846 155.797389,28.9801357 155.19746,28.9801357 L154.377562,28.9801357 C153.857624,28.9801357 153.377688,28.8734833 152.93774,28.6601753 C152.497792,28.4468673 152.117843,28.1635718 151.797881,27.8102805 C151.477919,27.4569891 151.227952,27.0503768 151.047974,26.5904314 C150.867995,26.130486 150.778007,25.6472173 150.778007,25.1406108 L153.057725,25.1406108 C153.057725,25.3272553 153.087721,25.5172299 153.147714,25.7105403 C153.207707,25.9038507 153.294362,26.0738279 153.407682,26.2204772 C153.521002,26.3671264 153.65765,26.4871104 153.817631,26.5804326 C153.977612,26.6737549 154.164254,26.7204153 154.377562,26.7204153 L155.19746,26.7204153 C155.464095,26.7204153 155.684066,26.6604234 155.857379,26.5404376 C156.030691,26.4204518 156.16734,26.2638061 156.267328,26.0704958 C156.367316,25.8771854 156.433974,25.6672135 156.467303,25.4405737 C156.500633,25.2139339 156.517297,24.9939634 156.517297,24.7806554 C156.517297,24.3807029 156.463971,24.0640785 156.357317,23.8307729 C156.250663,23.5974673 156.100683,23.4241571 155.907373,23.3108372 C155.714062,23.1975174 155.487426,23.1275267 155.227457,23.1008632 C155.054144,23.0830876 154.870464,23.0712372 154.676414,23.065312 L154.377562,23.0608682 C153.83096,23.0608682 153.337693,22.9542158 152.897745,22.7409078 C152.457797,22.5275998 152.081181,22.2376385 151.767885,21.8710154 C151.454589,21.5043923 151.211288,21.0844484 151.037975,20.6111713 C150.864662,20.1378942 150.778007,19.6412939 150.778007,19.1213557 C150.778007,18.6014174 150.864662,18.1048172 151.037975,17.63154 C151.211288,17.1582629 151.454589,16.7416519 151.767885,16.3816947 C152.081181,16.0217374 152.457797,15.7317762 152.897745,15.5118023 C153.337693,15.2918285 153.83096,15.1818432 154.377562,15.1818432 L155.19746,15.1818432 Z M135.395111,15.1818432 C135.888386,15.1818432 136.351657,15.2818298 136.784939,15.481806 C137.218221,15.6817823 137.59817,15.9517462 137.924798,16.2917058 C138.251426,16.6316655 138.508058,17.0349449 138.694703,17.5015561 C138.881347,17.9681674 138.974668,18.4614347 138.974668,18.981373 L138.974668,25.1606083 C138.974668,25.6805466 138.881347,26.173814 138.694703,26.6404252 C138.508058,27.1070365 138.251426,27.5103159 137.924798,27.8502755 C137.59817,28.1902351 137.218221,28.460199 136.784939,28.6601753 C136.351657,28.8601515 135.888386,28.9601382 135.395111,28.9601382 L134.575212,28.9601382 C134.081938,28.9601382 133.615333,28.8601515 133.175385,28.6601753 C132.735438,28.460199 132.352156,28.1902351 132.025528,27.8502755 C131.6989,27.5103159 131.442268,27.1070365 131.255623,26.6404252 C131.068979,26.173814 130.975658,25.6805466 130.975658,25.1606083 L130.975658,18.981373 C130.975658,18.4614347 131.068979,17.9681674 131.255623,17.5015561 C131.442268,17.0349449 131.6989,16.6316655 132.025528,16.2917058 C132.352156,15.9517462 132.735438,15.6817823 133.175385,15.481806 C133.615333,15.2818298 134.081938,15.1818432 134.575212,15.1818432 L135.395111,15.1818432 Z M123.956526,15.1818432 L123.956526,17.4415635 L120.676932,17.4415635 C120.303643,17.4415635 119.990352,17.5915435 119.737048,17.8915079 C119.483745,18.1914722 119.357095,18.554757 119.357095,18.981373 L119.357095,25.1606083 C119.357095,25.5872244 119.483745,25.9471762 119.737048,26.2404747 C119.990352,26.5337732 120.303643,26.6804203 120.676932,26.6804203 L123.956526,26.6804203 L123.956526,28.9601382 L120.676932,28.9601382 C120.183657,28.9601382 119.717053,28.8601515 119.277105,28.6601753 C118.837158,28.460199 118.453875,28.1902351 118.127248,27.8502755 C117.80062,27.5103159 117.543987,27.1070365 117.357343,26.6404252 C117.170698,26.173814 117.077378,25.6805466 117.077378,25.1606083 L117.077378,18.981373 C117.077378,18.4614347 117.170698,17.9681674 117.357343,17.5015561 C117.543987,17.0349449 117.80062,16.6316655 118.127248,16.2917058 C118.453875,15.9517462 118.837158,15.6817823 119.277105,15.481806 C119.717053,15.2818298 120.183657,15.1818432 120.676932,15.1818432 L123.956526,15.1818432 Z M35.9285,26.5117 L33.9288,26.5117 L33.9288,28.1399 C34.0133,28.2722 34.0953,28.3961 34.174,28.5114 L35.9285,28.5114 L35.9285,26.5117 Z M102.181621,23.0608682 L100.041886,23.0608682 C99.8419093,23.0608682 99.6619334,23.1075286 99.5019524,23.2008509 C99.3419714,23.2941731 99.2019901,23.4141571 99.0820044,23.5608063 C98.9620186,23.7074556 98.8720306,23.8707671 98.8120378,24.0507457 C98.7520449,24.2307243 98.7220489,24.4140331 98.7220489,24.6006776 L98.7220489,25.1606083 C98.7220489,25.3472528 98.7520449,25.5305617 98.8120378,25.7105403 C98.8720306,25.8905189 98.9620186,26.0538304 99.0820044,26.2004797 C99.2019901,26.3471289 99.3419714,26.4671129 99.5019524,26.5604351 C99.6619334,26.6537574 99.8419093,26.7004178 100.041886,26.7004178 L100.861784,26.7004178 C101.06176,26.7004178 101.241736,26.6537574 101.401717,26.5604351 C101.561698,26.4671129 101.70168,26.3471289 101.821665,26.2004797 C101.941651,26.0538304 102.031639,25.8905189 102.091632,25.7105403 C102.151625,25.5305617 102.181621,25.3472528 102.181621,25.1606083 L102.181621,23.0608682 Z M135.395111,17.4415635 L134.575212,17.4415635 C134.201923,17.4415635 133.888632,17.5915435 133.635329,17.8915079 C133.382025,18.1914722 133.255376,18.554757 133.255376,18.981373 L133.255376,25.1606083 C133.255376,25.5872244 133.382025,25.9471762 133.635329,26.2404747 C133.888632,26.5337732 134.201923,26.6804203 134.575212,26.6804203 L135.395111,26.6804203 C135.755068,26.6804203 136.065027,26.5337732 136.324996,26.2404747 C136.584965,25.9471762 136.714947,25.5872244 136.714947,25.1606083 L136.714947,18.981373 C136.714947,18.554757 136.584965,18.1914722 136.324996,17.8915079 C136.065027,17.5915435 135.755068,17.4415635 135.395111,17.4415635 Z M38.9282,23.512 L36.9284,23.512 L36.9284,25.5118 L38.9282,25.5118 L38.9282,23.512 Z M35.9285,23.512 L33.9288,23.512 L33.9288,25.5118 L35.9285,25.5118 L35.9285,23.512 Z M38.9282,20.5125 L36.9284,20.5125 L36.9284,22.5122 L38.9282,22.5122 L38.9282,20.5125 Z M35.9285,20.5125 L33.9288,20.5125 L33.9288,22.5122 L35.9285,22.5122 L35.9285,20.5125 Z M32.9288,20.5124 L31.8416,20.5124 C31.8616,20.9579 31.8899,21.5646 31.929,22.3871 L31.9362,22.5122 L32.9288,22.5122 L32.9288,20.5124 Z M75.5049219,17.4615611 L74.6850234,17.4615611 C74.2717391,17.4615611 73.948449,17.6248726 73.7151434,17.9515004 C73.4818377,18.2781283 73.3651867,18.6280815 73.3651867,19.0013705 L73.3651867,20.8011478 L76.8247586,20.8011478 L76.8247586,19.0013705 C76.8247586,18.814726 76.7947626,18.6314172 76.7347697,18.4514386 C76.6747768,18.2714599 76.5847889,18.1081484 76.4648031,17.9614992 C76.3448174,17.8148499 76.2048361,17.694866 76.0448551,17.6015437 C75.8848741,17.5082215 75.7048982,17.4615611 75.5049219,17.4615611 Z M32.9288,17.5128 L30.8979,17.5128 L30.9916,19.4501 L31.7965,19.4501 L31.7989,19.5126 L32.9288,19.5126 L32.9288,17.5128 Z M35.9285,17.5128 L33.9288,17.5128 L33.9288,19.5126 L35.9285,19.5126 L35.9285,17.5128 Z M38.9282,17.5128 L36.9284,17.5128 L36.9284,19.5126 L38.9282,19.5126 L38.9282,17.5128 Z M31.804,19.4501 L31.7965,19.4501 C31.7883,19.2009 31.8036,19.443 31.804,19.4501 Z M32.9288,14.5131 L29.8043,14.5131 L29.8043,15.388 L30.8042,15.5755 L30.8495,16.5129 L32.9288,16.5129 L32.9288,14.5131 Z M35.9285,14.5132 L33.9288,14.5132 L33.9288,16.5129 L35.9285,16.5129 L35.9285,14.5132 Z M38.9282,14.5132 L36.9284,14.5132 L36.9284,16.5129 L38.9282,16.5129 L38.9282,14.5132 Z M127.938434,11.9822391 L127.938434,13.6820288 L125.658716,13.6820288 L125.658716,11.9822391 L127.938434,11.9822391 Z M114.040153,11.9822391 L114.040153,13.6820288 L111.760435,13.6820288 L111.760435,11.9822391 L114.040153,11.9822391 Z M32.9288,11.5135 L30.8666,11.5135 L30.8042,12.4509 L29.8043,12.4509 L29.8043,13.5133 L32.9288,13.5133 L32.9288,11.5135 Z M35.9285,11.5135 L33.9288,11.5135 L33.9288,13.5133 L35.9285,13.5133 L35.9285,11.5135 Z M38.9282,11.5135 L36.9284,11.5135 L36.9284,13.5133 L38.9282,13.5133 L38.9282,11.5135 Z M38.9282,8.5139 L36.9284,8.5139 L36.9284,10.5136 L38.9282,10.5136 L38.9282,8.5139 Z M32.9288,8.5139 L31.9297,8.5139 L31.9717,10.5136 L32.9288,10.5136 L32.9288,8.5139 Z M35.9285,8.5139 L33.9288,8.5139 L33.9288,10.5136 L35.9285,10.5136 L35.9285,8.5139 Z M32.9288,5.5143 L31.8665,5.5143 L31.9086,7.514 L32.9288,7.514 L32.9288,5.5143 Z M35.9285,5.5143 L33.9288,5.5143 L33.9288,7.514 L35.9285,7.514 L35.9285,5.5143 Z M32.9283556,26.3008165 L32.9288,23.512 L32.0535,23.512 C32.2280307,24.5294961 32.5552402,25.4749494 32.9283556,26.3008165 Z" transform="translate(.475 .153)"/>
</svg>
