<svg xmlns="http://www.w3.org/2000/svg" width="24" height="24" viewBox="0 0 24 24">
  <path d="M12,24 C18.617,24 24,18.617 24,12 C24,5.384 18.617,0 12,0 C5.383,0 0,5.384 0,12 C0,18.617 5.383,24 12,24 Z M7,7.5 C7,7.224 7.224,7 7.5,7 L10.5,7 C10.776,7 11,7.224 11,7.5 L11,16.5 C11,16.776 10.776,17 10.5,17 L7.5,17 C7.224,17 7,16.776 7,16.5 L7,7.5 Z M13,16.5 L13,7.5 C13,7.224 13.224,7 13.5,7 L16.5,7 C16.776,7 17,7.224 17,7.5 L17,16.5 C17,16.776 16.776,17 16.5,17 L13.5,17 C13.224,17 13,16.776 13,16.5 Z"/>
</svg>
